<?xml version="1.0" standalone="yes"?>
<svg xmlns="http://www.w3.org/2000/svg" width="819" height="613">
<path style="fill:#fcfcfc; stroke:none;" d="M0 0L0 613L617 613L768 613L805 613C808.417 613 815.522 614.286 817.972 611.258C820.047 608.694 819 603.073 819 600L819 570L819 453L819 0L0 0z"/>
<path style="fill:#f8d0cf; stroke:none;" d="M426 213C427.769 213.779 429.036 213.912 431 214C429.231 213.221 427.964 213.088 426 213z"/>
<path style="fill:#f38e8c; stroke:none;" d="M425 215.009C416.884 218.757 411.214 227.45 404.995 233.576C392.034 246.343 378.66 258.889 366.04 271.996C360.825 277.413 350.296 285.568 348.617 293C347.26 299.002 353.106 303.155 356.715 306.924C363.463 313.97 369.954 321.207 377 327.981C381.062 331.888 386.123 335.492 392 333.141C399.351 330.201 405.519 321.481 411 316L450 277C455.431 271.569 465.506 264.677 467.566 257C469.824 248.579 462.917 242.501 457.424 237.546C451.486 232.187 445.678 226.639 440 221.001C435.87 216.899 431.264 212.117 425 215.009z"/>
<path style="fill:#fbf1f0; stroke:none;" d="M433 214C437.47 220.346 443.654 226.53 450 231C446.909 224.371 439.629 217.091 433 214z"/>
<path style="fill:#fcfcfc; stroke:none;" d="M456 265C457.916 264.106 459.415 263.304 461.005 261.851C473.762 250.198 453.075 237.075 445 229C441.081 225.081 436.46 218.53 431 216.786C426.371 215.308 418.388 220.884 419.06 226C419.617 230.239 425.188 234.187 428 237L439 248C444.63 253.63 450.802 258.991 456 265z"/>
<path style="fill:#f7bdbc; stroke:none;" d="M419.667 218.333C419.222 218.778 420.278 218.722 420.333 218.667C420.778 218.222 419.722 218.278 419.667 218.333z"/>
<path style="fill:#f9dfdd; stroke:none;" d="M415 221L415 224C415.696 222.446 415.696 222.554 415 221z"/>
<path style="fill:#f7c6c6; stroke:none;" d="M414 224L415 225L414 224z"/>
<path style="fill:#fadddc; stroke:none;" d="M411 225C412.248 225.685 412.548 225.749 414 226C412.752 225.315 412.452 225.251 411 225z"/>
<path style="fill:#fbf0f0; stroke:none;" d="M417 225L377 265C372.069 269.931 363.204 275.947 362 283C367.281 278.53 371.766 273.066 376.826 268.325C391.246 254.815 406.031 240.908 419 226L417 225z"/>
<path style="fill:#f8d8d6; stroke:none;" d="M409 227L409 230C409.696 228.446 409.696 228.554 409 227z"/>
<path style="fill:#f39390; stroke:none;" d="M417 227C406.549 238.983 394.805 250.532 383.3 261.535C377.049 267.513 368.71 273.045 365 281C371.972 279.043 377.013 271.987 382 267C393.823 255.177 408.37 243.67 418 230C429.192 241.192 442.884 252.059 452 265C454.081 260.516 448.994 257.002 446 254C437.451 245.43 428.023 232.14 417 227z"/>
<path style="fill:#fcfcfc; stroke:none;" d="M418 230L380 268C376.899 271.101 368.335 277.03 368.921 282C369.42 286.226 375.226 290.14 377.961 293C384.96 300.321 393.183 307.743 399 316C404.983 313.21 409.377 307.623 414 303L439 278C442.163 274.837 450.793 268.883 450.793 264C450.793 260.188 445.424 256.425 443 254C434.992 245.988 427.269 236.529 418 230z"/>
<path style="fill:#f5aaa7; stroke:none;" d="M402 237L406 234C403.346 233.385 402.791 234.533 402 237z"/>
<path style="fill:#f6b7b5; stroke:none;" d="M439.667 233.333C439.222 233.778 440.278 233.722 440.333 233.667C440.778 233.222 439.722 233.278 439.667 233.333z"/>
<path style="fill:#f5aeac; stroke:none;" d="M437 234L437 238C437.911 236.623 438.404 235.56 439 234L437 234z"/>
<path style="fill:#f28b88; stroke:none;" d="M439.623 235.176C435.636 237.511 443.682 246.688 447.338 243.914C450.689 241.371 442.84 233.291 439.623 235.176z"/>
<path style="fill:#f8d6d4; stroke:none;" d="M440 236C441.649 239.501 443.499 241.351 447 243C444.96 240.12 442.88 238.04 440 236z"/>
<path style="fill:#f8d0ce; stroke:none;" d="M457 238C458.248 238.685 458.548 238.749 460 239C458.752 238.315 458.452 238.251 457 238z"/>
<path style="fill:#f7c8c6; stroke:none;" d="M396 242L397 243L396 242z"/>
<path style="fill:#f7c7c5; stroke:none;" d="M394 244L395 245L394 244z"/>
<path style="fill:#f7c6c5; stroke:none;" d="M465 244L465 247C465.696 245.446 465.696 245.554 465 244z"/>
<path style="fill:#f7c9c8; stroke:none;" d="M393 245L394 246L393 245z"/>
<path style="fill:#f7c2c1; stroke:none;" d="M445.667 245.333C445.222 245.778 446.278 245.722 446.333 245.667C446.778 245.222 445.722 245.278 445.667 245.333z"/>
<path style="fill:#f7c7c5; stroke:none;" d="M392 246L393 247L392 246z"/>
<path style="fill:#f7c9c7; stroke:none;" d="M390 248L391 249L390 248z"/>
<path style="fill:#f5aba9; stroke:none;" d="M467.333 248.667C467.278 248.722 467.222 249.778 467.667 249.333C467.722 249.278 467.778 248.222 467.333 248.667z"/>
<path style="fill:#f8c8c7; stroke:none;" d="M389 249L390 250L389 249z"/>
<path style="fill:#f4a6a3; stroke:none;" d="M468 250L468 257C469.059 254.466 469.059 252.534 468 250z"/>
<path style="fill:#f8c9c7; stroke:none;" d="M387 251L388 252L387 251z"/>
<path style="fill:#f7c5c3; stroke:none;" d="M466 251L466 256C466.83 253.97 466.83 253.03 466 251z"/>
<path style="fill:#fae3e2; stroke:none;" d="M469 251L469 256C469.83 253.969 469.83 253.031 469 251z"/>
<path style="fill:#f8c9c7; stroke:none;" d="M386 252L387 253L386 252z"/>
<path style="fill:#f7c7c6; stroke:none;" d="M384 254L385 255L384 254z"/>
<path style="fill:#f7c9c7; stroke:none;" d="M383 255L384 256L383 255M382 256L383 257L382 256z"/>
<path style="fill:#f7c8c7; stroke:none;" d="M380 258L381 259L380 258z"/>
<path style="fill:#f28c89; stroke:none;" d="M453 263C443.842 273.587 432.916 283.084 423 293C415.307 300.693 407.903 309.729 399 316C394.631 306.631 384.336 299.975 377 292.961C372.811 288.955 369.043 283.888 364 281C365.432 286.102 369.325 289.324 373 293L390 310C392.565 312.564 396.708 318.456 400.83 318.118C405.731 317.716 411.796 309.274 414.961 306.004C424.143 296.516 433.66 287.34 443 278C447.477 273.523 453.244 269.255 455 263L453 263z"/>
<path style="fill:#f7c8c6; stroke:none;" d="M455.333 263.667C455.278 263.722 455.222 264.778 455.667 264.333C455.722 264.278 455.778 263.222 455.333 263.667z"/>
<path style="fill:#fbeeee; stroke:none;" d="M399 319C404.648 321.622 411.359 311.641 415 308C428.728 294.272 445.822 280.868 457 265C450.642 267.965 445.912 274.088 441 279C431.996 288.004 422.93 296.944 413.985 306.004C409.455 310.592 404.922 316.278 399 319z"/>
<path style="fill:#f7c6c5; stroke:none;" d="M361 277L362 278L361 277z"/>
<path style="fill:#f7c8c7; stroke:none;" d="M359 279L360 280L359 279z"/>
<path style="fill:#f7c6c5; stroke:none;" d="M358 280L359 281L358 280z"/>
<path style="fill:#f7c7c5; stroke:none;" d="M357 281L358 282L357 281z"/>
<path style="fill:#f5b1ae; stroke:none;" d="M363.333 281.667C363.278 281.722 363.222 282.778 363.667 282.333C363.722 282.278 363.778 281.222 363.333 281.667z"/>
<path style="fill:#f7bebd; stroke:none;" d="M366.333 281.667C366.278 281.722 366.222 282.778 366.667 282.333C366.722 282.278 366.778 281.222 366.333 281.667z"/>
<path style="fill:#fbf0ef; stroke:none;" d="M367 281C368.863 287.637 375.851 294.132 382 297C377.857 291.119 372.282 285.883 367 281z"/>
<path style="fill:#fcfcfc; stroke:none;" d="M401 320C394.639 314.498 388.959 307.959 383 302L372 291C369.412 288.417 365.901 283.572 362 283.06C356.639 282.356 350.318 291.085 351.337 296C352.62 302.186 360.742 307.742 365 312C369.993 316.993 374.897 322.099 380 326.981C382.204 329.089 384.694 331.712 388 331.623C391.598 331.527 394.624 328.401 396.941 325.989C398.754 324.102 399.911 322.334 401 320z"/>
<path style="fill:#f7c7c6; stroke:none;" d="M355 283L356 284L355 283z"/>
<path style="fill:#f7c9c7; stroke:none;" d="M354 284L355 285L354 284z"/>
<path style="fill:#f8c8c7; stroke:none;" d="M352 286L353 287L352 286z"/>
<path style="fill:#f6b2b0; stroke:none;" d="M348.333 291.667C348.278 291.722 348.222 292.778 348.667 292.333C348.722 292.278 348.778 291.222 348.333 291.667z"/>
<path style="fill:#f6bebd; stroke:none;" d="M350 292L350 297C350.83 294.97 350.83 294.031 350 292z"/>
<path style="fill:#f6b4b3; stroke:none;" d="M371 303C372.769 303.779 374.036 303.912 376 304C374.231 303.221 372.964 303.088 371 303z"/>
<path style="fill:#fbedec; stroke:none;" d="M354 304C355.104 306.357 355.956 307.376 358 309C356.896 306.643 356.044 305.624 354 304z"/>
<path style="fill:#f28b88; stroke:none;" d="M370.603 305.029C366.175 308.501 371.617 316.113 376.566 312.816C382.068 309.152 375.557 301.144 370.603 305.029z"/>
<path style="fill:#f6bab8; stroke:none;" d="M373.667 305.333C373.222 305.778 374.278 305.722 374.333 305.667C374.778 305.222 373.722 305.278 373.667 305.333z"/>
<path style="fill:#fcfcfc; stroke:none;" d="M372 306L372 311C376.992 310.168 376.992 306.832 372 306z"/>
<path style="fill:#f6b3b1; stroke:none;" d="M368 307L368 311C368.71 309.24 368.71 308.76 368 307z"/>
<path style="fill:#fae4e4; stroke:none;" d="M371 307L371 311C371.71 309.24 371.71 308.76 371 307z"/>
<path style="fill:#f9d9d8; stroke:none;" d="M379 307L379 310C379.696 308.446 379.696 308.554 379 307z"/>
<path style="fill:#f8cac9; stroke:none;" d="M372 311C373.248 311.685 373.548 311.749 375 312C373.752 311.315 373.452 311.251 372 311z"/>
<path style="fill:#f6b3b1; stroke:none;" d="M386 332C387.506 332.683 388.315 332.826 390 333C388.494 332.317 387.685 332.174 386 332z"/>
<path style="fill:#f6c0be; stroke:none;" d="M383 333C385.56 334.942 387.808 334.965 391 335C388.465 333.861 385.744 333.518 383 333z"/>
<path style="fill:#c5e1d4; stroke:none;" d="M227.667 349.333C227.222 349.778 228.278 349.722 228.333 349.667C228.778 349.222 227.722 349.278 227.667 349.333z"/>
<path style="fill:#80bda0; stroke:none;" d="M229 349.515C210.162 353.347 202.542 377.58 218.093 390.468C224.028 395.386 232.659 395.943 240 394.532C254.489 391.746 262.271 372.793 254.91 360.004C250.104 351.653 238.184 347.646 229 349.515z"/>
<path style="fill:#b7dac9; stroke:none;" d="M237 349C238.248 349.685 238.548 349.749 240 350C238.752 349.315 238.452 349.251 237 349z"/>
<path style="fill:#c0ddcf; stroke:none;" d="M265 349C267.89 350.213 270.874 349.998 274 350C271.11 348.787 268.126 349.002 265 349M295 349C297.89 350.213 300.874 349.998 304 350C301.11 348.787 298.126 349.002 295 349M313 349C316.163 350.327 319.586 350 323 350C319.837 348.673 316.414 349 313 349M336 351C339.368 350.198 342.545 350.01 346 350C342.756 348.639 338.437 348.211 336 351M367 349C370.112 350.309 373.679 350.209 377 351C374.569 348.218 370.509 349 367 349M382 349C388.445 351.704 398.032 350 405 350C398.555 347.296 388.968 349 382 349M424 349C427.163 350.327 430.586 350 434 350C430.837 348.673 427.414 349 424 349M453 349C456.163 350.327 459.586 350 463 350C459.837 348.673 456.414 349 453 349z"/>
<path style="fill:#bcdbcc; stroke:none;" d="M488.667 349.333C488.222 349.778 489.278 349.722 489.333 349.667C489.778 349.222 488.722 349.278 488.667 349.333z"/>
<path style="fill:#80bda0; stroke:none;" d="M490 349.44C472.326 352.258 463.857 374.14 476.214 387.957C482.081 394.518 491.588 396.149 500 394.671C514.819 392.068 523.106 374.303 515.86 361C510.936 351.959 499.824 347.873 490 349.44z"/>
<path style="fill:#c1ded1; stroke:none;" d="M498.667 349.333C498.222 349.778 499.278 349.722 499.333 349.667C499.778 349.222 498.722 349.278 498.667 349.333z"/>
<path style="fill:#c0ddcf; stroke:none;" d="M526 349C528.89 350.213 531.874 349.998 535 350C532.11 348.787 529.126 349.002 526 349M556 349C558.89 350.213 561.874 349.998 565 350C562.11 348.787 559.126 349.002 556 349z"/>
<path style="fill:#edf4f1; stroke:none;" d="M565 349L565 384C567.802 377.322 566 367.216 566 360C566 356.298 566.441 352.434 565 349z"/>
<path style="fill:#c0ddcf; stroke:none;" d="M574 349C577.699 350.552 582.017 350 586 350L607 350C603.301 348.448 598.983 349 595 349L574 349z"/>
<path style="fill:#a2ceb9; stroke:none;" d="M224.667 350.333C224.222 350.778 225.278 350.722 225.333 350.667C225.778 350.222 224.722 350.278 224.667 350.333z"/>
<path style="fill:#9eccb7; stroke:none;" d="M265 350L265 395L274 395C271.387 393.902 268.835 394.007 266 394L266 365C266 360.191 266.875 354.469 265 350z"/>
<path style="fill:#80bda0; stroke:none;" d="M266 350L266 394L274 394L274 366C279.199 370.998 283.087 377.918 286.947 384C288.795 386.913 290.51 391.06 293.518 392.972C296.121 394.627 300.059 394 303 394C298.825 382.984 290.184 372.776 283.667 363C281.139 359.208 278.531 353.465 274.535 351.028C272.1 349.542 268.728 350.002 266 350z"/>
<path style="fill:#deece6; stroke:none;" d="M294 350L294 372C296.219 366.713 296.219 355.287 294 350z"/>
<path style="fill:#9dcbb6; stroke:none;" d="M295 350L295 373C297.284 367.557 297.284 355.443 295 350z"/>
<path style="fill:#80bda0; stroke:none;" d="M296 350C296 361.941 293.083 376.12 304 384L304 350L296 350z"/>
<path style="fill:#d6e9e0; stroke:none;" d="M304 350L304 384C306.802 377.323 305 367.215 305 360C305 356.581 305.328 353.166 304 350z"/>
<path style="fill:#9fcdb7; stroke:none;" d="M313 350L313 395L342 395L342 386C340.902 388.613 341.007 391.164 341 394L314 394L314 365C314 360.191 314.875 354.469 313 350z"/>
<path style="fill:#80bda0; stroke:none;" d="M314 350L314 394L341 394L341 386L322 386L322 350L314 350z"/>
<path style="fill:#8ec4aa; stroke:none;" d="M322 350L322 386C324.903 379.081 323 368.48 323 361C323 357.298 323.441 353.435 322 350z"/>
<path style="fill:#c7e1d5; stroke:none;" d="M323 350L323 386C325.903 379.081 324 368.48 324 361C324 357.298 324.441 353.435 323 350z"/>
<path style="fill:#80bda0; stroke:none;" d="M337 350C339.452 360.715 347.592 369.659 351.185 380C352.687 384.322 352 389.486 352 394L361 394C361 389.457 361.574 384.46 360.61 380C359.352 374.182 355.559 368.431 353.139 363C351.551 359.438 349.672 353.339 346.363 351.028C343.909 349.315 339.83 350 337 350z"/>
<path style="fill:#abd4c1; stroke:none;" d="M366.333 350.667C366.278 350.722 366.222 351.778 366.667 351.333C366.722 351.278 366.778 350.222 366.333 350.667z"/>
<path style="fill:#80bda0; stroke:none;" d="M366 372C369.043 364.692 374.592 357.801 376 350C373.416 350.002 369.881 349.46 367.637 351.028C361.896 355.039 357.475 369.307 366 372z"/>
<path style="fill:#96c8b0; stroke:none;" d="M382 350L382 395L392 395C389.11 393.787 386.126 394.002 383 394L383 365C383 360.191 383.875 354.469 382 350z"/>
<path style="fill:#80bda0; stroke:none;" d="M383 350L383 394L392 394L392 379C397.875 379 405.761 380.351 410.985 377.142C418.864 372.301 419.607 358.104 411.956 352.703C404.636 347.536 391.515 350 383 350z"/>
<path style="fill:#dcece4; stroke:none;" d="M407.667 350.333C407.222 350.778 408.278 350.722 408.333 350.667C408.778 350.222 407.722 350.278 407.667 350.333z"/>
<path style="fill:#e9f2ee; stroke:none;" d="M423 350L423 395C424.552 391.301 424 386.983 424 383L424 363C424 358.74 424.661 353.959 423 350z"/>
<path style="fill:#95c7af; stroke:none;" d="M424 350L424 395L434 395L434 350C432.125 354.469 433 360.191 433 365L433 394L425 394L425 365C425 360.191 425.875 354.469 424 350z"/>
<path style="fill:#80bda0; stroke:none;" d="M425 350L425 394L433 394L433 350L425 350z"/>
<path style="fill:#d4e8de; stroke:none;" d="M434 350L434 395C435.661 391.041 435 386.26 435 382L435 361C435 357.298 435.441 353.435 434 350z"/>
<path style="fill:#80bda0; stroke:none;" d="M453 350L453 369L442 369L441 376C444.169 376 448.912 375.179 451.682 377.028C455.848 379.808 454 389.652 454 394L462 394L462 350L453 350z"/>
<path style="fill:#93c7ae; stroke:none;" d="M462 350L462 394L454 394L454 377C451.809 382.222 453 389.368 453 395L463 395L463 365C463 360.191 463.875 354.469 462 350z"/>
<path style="fill:#d2e7dd; stroke:none;" d="M463 350L463 395C464.661 391.041 464 386.26 464 382L464 361C464 357.298 464.441 353.435 463 350z"/>
<path style="fill:#e5f1ec; stroke:none;" d="M525 350L525 395C526.552 391.301 526 386.983 526 383L526 363C526 358.74 526.661 353.959 525 350z"/>
<path style="fill:#80bda0; stroke:none;" d="M526 350L526 394L534 394L534 366C543.715 371.473 544.47 387.442 554.184 392.972C556.747 394.431 560.166 393.998 563 394C561.996 388.956 558.823 385.213 556.001 381C551.796 374.724 547.851 368.288 543.667 362C541.387 358.574 539.039 353.285 535.482 351.028C532.877 349.374 528.943 350 526 350z"/>
<path style="fill:#c6e1d4; stroke:none;" d="M555 350L555 372C557.219 366.713 557.219 355.287 555 350z"/>
<path style="fill:#80bda0; stroke:none;" d="M556 350C556 360.947 552.794 376.627 564 383L564 350L556 350z"/>
<path style="fill:#95c7af; stroke:none;" d="M564 350L564 384C566.802 377.323 565 367.215 565 360C565 356.581 565.328 353.166 564 350z"/>
<path style="fill:#d9eae2; stroke:none;" d="M573 350L573 395C574.552 391.301 574 386.983 574 383L574 363C574 358.74 574.661 353.958 573 350z"/>
<path style="fill:#9fcdb7; stroke:none;" d="M574 350L574 395L607 395C603.301 393.448 598.983 394 595 394L575 394L575 365C575 360.191 575.875 354.469 574 350z"/>
<path style="fill:#80bda0; stroke:none;" d="M575 350L575 394L607 394L607 387C601.389 387 590.1 389.163 585.318 385.972C580.733 382.913 582.806 368.897 583.019 364.001C583.116 361.782 583.288 359.382 585.318 358.028C589.927 354.952 600.602 357 606 357L606 350L575 350z"/>
<path style="fill:#99cab2; stroke:none;" d="M606 350L606 357L584 357C590.445 359.704 600.032 358 607 358C606.993 355.164 607.098 352.613 606 350z"/>
<path style="fill:#e3f0ea; stroke:none;" d="M607 350L607 358C608.161 355.23 608.161 352.77 607 350z"/>
<path style="fill:#b9dacb; stroke:none;" d="M275 351L276 352L275 351z"/>
<path style="fill:#b6d9c9; stroke:none;" d="M410 351L411 352L410 351z"/>
<path style="fill:#acd4c1; stroke:none;" d="M365.333 352.667C365.278 352.722 365.222 353.778 365.667 353.333C365.722 353.278 365.778 352.222 365.333 352.667z"/>
<path style="fill:#acd3c1; stroke:none;" d="M364.333 354.667C364.278 354.722 364.222 355.778 364.667 355.333C364.722 355.278 364.778 354.222 364.333 354.667z"/>
<path style="fill:#bedccd; stroke:none;" d="M216 355L217 356L216 355z"/>
<path style="fill:#c0decf; stroke:none;" d="M215 356L216 357L215 356z"/>
<path style="fill:#abd3c0; stroke:none;" d="M363.333 356.667C363.278 356.722 363.222 357.778 363.667 357.333C363.722 357.278 363.778 356.222 363.333 356.667z"/>
<path style="fill:#99cab2; stroke:none;" d="M392 357C395.432 358.44 399.3 358 403 358C399.568 356.56 395.7 357 392 357z"/>
<path style="fill:#92c6ad; stroke:none;" d="M491 357C494.384 358.522 498.358 359.167 502 360C498.717 357.145 495.238 357.036 491 357z"/>
<path style="fill:#a0cdb8; stroke:none;" d="M228.667 358.333C228.222 358.778 229.278 358.722 229.333 358.667C229.778 358.222 228.722 358.278 228.667 358.333z"/>
<path style="fill:#e0eee7; stroke:none;" d="M230 358C232.613 359.098 235.164 358.993 238 359C235.387 357.902 232.835 358.007 230 358z"/>
<path style="fill:#aad3c0; stroke:none;" d="M362.333 358.667C362.278 358.722 362.222 359.778 362.667 359.333C362.722 359.278 362.778 358.222 362.333 358.667z"/>
<path style="fill:#d8e9e1; stroke:none;" d="M372.333 358.667C372.278 358.722 372.222 359.778 372.667 359.333C372.722 359.278 372.778 358.222 372.333 358.667z"/>
<path style="fill:#92c6ad; stroke:none;" d="M391 358L391 372C392.667 368.028 392.667 361.972 391 358z"/>
<path style="fill:#c5e0d3; stroke:none;" d="M392 358L392 372L404 372C400.568 370.56 396.7 371 393 371C393 366.737 393.661 361.959 392 358z"/>
<path style="fill:#fcfcfc; stroke:none;" d="M393 358L393 371C396.409 371 400.689 371.635 403.891 370.258C408.345 368.342 409.228 361.841 404.852 359.318C401.473 357.37 396.743 358 393 358z"/>
<path style="fill:#aad2bf; stroke:none;" d="M403.667 358.333C403.222 358.778 404.278 358.722 404.333 358.667C404.778 358.222 403.722 358.278 403.667 358.333z"/>
<path style="fill:#a8d1bd; stroke:none;" d="M489.667 358.333C489.222 358.778 490.278 358.722 490.333 358.667C490.778 358.222 489.722 358.278 489.667 358.333z"/>
<path style="fill:#e1eee8; stroke:none;" d="M491 358C493.052 358.874 494.747 358.953 497 359C494.948 358.126 493.253 358.047 491 358z"/>
<path style="fill:#99c9b2; stroke:none;" d="M583 358L583 386C585.604 379.794 585.604 364.206 583 358z"/>
<path style="fill:#e7f1ec; stroke:none;" d="M584 358L584 386C586.604 379.794 586.604 364.206 584 358z"/>
<path style="fill:#fcfcfc; stroke:none;" d="M227.171 360.024C211.323 368.635 225.254 393.69 240.995 384.142C255.566 375.304 242.669 351.603 227.171 360.024z"/>
<path style="fill:#96c8b0; stroke:none;" d="M240 359C241.223 360.195 241.42 360.316 243 361C241.777 359.805 241.58 359.684 240 359z"/>
<path style="fill:#fcfcfc; stroke:none;" d="M488.004 359.938C471.916 366.979 484.707 392.442 500.985 384.427C508.017 380.965 510.518 369.498 505.436 363.329C501.663 358.749 493.315 357.614 488.004 359.938z"/>
<path style="fill:#a8d1be; stroke:none;" d="M361.333 360.667C361.278 360.722 361.222 361.778 361.667 361.333C361.722 361.278 361.778 360.222 361.333 360.667z"/>
<path style="fill:#d8eae2; stroke:none;" d="M371.333 360.667C371.278 360.722 371.222 361.778 371.667 361.333C371.722 361.278 371.778 360.222 371.333 360.667z"/>
<path style="fill:#b8daca; stroke:none;" d="M417 360L417 368C418.161 365.23 418.161 362.77 417 360z"/>
<path style="fill:#c1ded0; stroke:none;" d="M485 361L486 362L485 361z"/>
<path style="fill:#e3efea; stroke:none;" d="M222 365C223.457 363.897 223.897 363.457 225 362C222.876 362.899 222.899 362.876 222 365z"/>
<path style="fill:#bbdbcc; stroke:none;" d="M256.333 362.667C256.278 362.722 256.222 363.778 256.667 363.333C256.722 363.278 256.778 362.222 256.333 362.667z"/>
<path style="fill:#a2ceb9; stroke:none;" d="M360 362L360 367C360.83 364.97 360.83 364.03 360 362z"/>
<path style="fill:#d7e9e1; stroke:none;" d="M370.333 362.667C370.278 362.722 370.222 363.778 370.667 363.333C370.722 363.278 370.778 362.222 370.333 362.667z"/>
<path style="fill:#96c8b1; stroke:none;" d="M408 362L408 367C408.83 364.97 408.83 364.03 408 362z"/>
<path style="fill:#bbdbcc; stroke:none;" d="M471.333 362.667C471.278 362.722 471.222 363.778 471.667 363.333C471.722 363.278 471.778 362.222 471.333 362.667z"/>
<path style="fill:#dfede7; stroke:none;" d="M359 363L359 367C359.71 365.24 359.71 364.76 359 363z"/>
<path style="fill:#a5d0bb; stroke:none;" d="M210.333 364.667C210.278 364.722 210.222 365.778 210.667 365.333C210.722 365.278 210.778 364.222 210.333 364.667z"/>
<path style="fill:#d1e6dc; stroke:none;" d="M257.333 364.667C257.278 364.722 257.222 365.778 257.667 365.333C257.722 365.278 257.778 364.222 257.333 364.667z"/>
<path style="fill:#d6e9e0; stroke:none;" d="M369.333 364.667C369.278 364.722 369.222 365.778 369.667 365.333C369.722 365.278 369.778 364.222 369.333 364.667z"/>
<path style="fill:#a2ceb9; stroke:none;" d="M517.333 364.667C517.278 364.722 517.222 365.778 517.667 365.333C517.722 365.278 517.778 364.222 517.333 364.667z"/>
<path style="fill:#a6d0bc; stroke:none;" d="M354.333 365.667C354.278 365.722 354.222 366.778 354.667 366.333C354.722 366.278 354.778 365.222 354.333 365.667z"/>
<path style="fill:#9bcab4; stroke:none;" d="M470 365C470 370.4 469.742 375.718 471 381C472.263 376.895 471.672 368.985 470 365z"/>
<path style="fill:#c5e0d3; stroke:none;" d="M220.333 366.667C220.278 366.722 220.222 367.778 220.667 367.333C220.722 367.278 220.778 366.222 220.333 366.667z"/>
<path style="fill:#93c6ae; stroke:none;" d="M257 366L257 378C258.512 374.396 258.512 369.604 257 366z"/>
<path style="fill:#b0d6c4; stroke:none;" d="M274 366L274 395C277.596 386.431 273.818 375.167 276 366L274 366z"/>
<path style="fill:#d6e9e0; stroke:none;" d="M368.333 366.667C368.278 366.722 368.222 367.778 368.667 367.333C368.722 367.278 368.778 366.222 368.333 366.667M507.333 366.667C507.278 366.722 507.222 367.778 507.667 367.333C507.722 367.278 507.778 366.222 507.333 366.667z"/>
<path style="fill:#92c6ad; stroke:none;" d="M534 366L534 394L526 394C528.89 395.213 531.874 394.998 535 395C535 387.351 532.289 373.218 537 367C535.752 366.315 535.452 366.251 534 366z"/>
<path style="fill:#eaf3ef; stroke:none;" d="M247 367L247 376C248.256 373.006 248.256 369.994 247 367z"/>
<path style="fill:#d2e7dd; stroke:none;" d="M258 367L258 375C259.161 372.23 259.161 369.77 258 367z"/>
<path style="fill:#a5d0bc; stroke:none;" d="M355.333 367.667C355.278 367.722 355.222 368.778 355.667 368.333C355.722 368.278 355.778 367.222 355.333 367.667z"/>
<path style="fill:#d1e6dc; stroke:none;" d="M360.333 367.667C360.278 367.722 360.222 368.778 360.667 368.333C360.722 368.278 360.778 367.222 360.333 367.667z"/>
<path style="fill:#bfddcf; stroke:none;" d="M508 367C507.99 370.763 507.687 374.3 507 378C509.424 374.801 509.547 370.687 508 367z"/>
<path style="fill:#a0ceb8; stroke:none;" d="M518 367L518 375C519.161 372.23 519.161 369.77 518 367z"/>
<path style="fill:#cfe5da; stroke:none;" d="M535 367L535 395C538.477 386.713 534.889 375.866 537 367L535 367z"/>
<path style="fill:#fae2e1; stroke:none;" d="M592 367C595.959 368.661 600.737 368 605 368C601.041 366.339 596.263 367 592 367z"/>
<path style="fill:#b3d7c6; stroke:none;" d="M209 368L209 376C210.161 373.23 210.161 370.77 209 368z"/>
<path style="fill:#b4d7c7; stroke:none;" d="M219 368L219 375C220.059 372.466 220.059 370.534 219 368z"/>
<path style="fill:#d5e8df; stroke:none;" d="M367.333 368.667C367.278 368.722 367.222 369.778 367.667 369.333C367.722 369.278 367.778 368.222 367.333 368.667z"/>
<path style="fill:#bddccd; stroke:none;" d="M442 368C445.432 369.44 449.3 369 453 369C449.568 367.56 445.7 368 442 368z"/>
<path style="fill:#daebe3; stroke:none;" d="M469 368L469 376C470.161 373.23 470.161 370.77 469 368z"/>
<path style="fill:#e3efe9; stroke:none;" d="M480 368L480 375C481.059 372.466 481.059 370.534 480 368z"/>
<path style="fill:#ddece5; stroke:none;" d="M537.333 368.667C537.278 368.722 537.222 369.778 537.667 369.333C537.722 369.278 537.778 368.222 537.333 368.667z"/>
<path style="fill:#f5aca9; stroke:none;" d="M592 368C595.697 369.552 600.017 369 604 369L604 376C605.098 373.387 604.993 370.835 605 368L592 368z"/>
<path style="fill:#a4cfbb; stroke:none;" d="M356.333 369.667C356.278 369.722 356.222 370.778 356.667 370.333C356.722 370.278 356.778 369.222 356.333 369.667z"/>
<path style="fill:#d9eae2; stroke:none;" d="M361.333 369.667C361.278 369.722 361.222 370.778 361.667 370.333C361.722 370.278 361.778 369.222 361.333 369.667z"/>
<path style="fill:#9eccb6; stroke:none;" d="M441 369L441 374C441.83 371.97 441.83 371.031 441 369z"/>
<path style="fill:#f28986; stroke:none;" d="M592 369L591 376L604 376L604 369L592 369z"/>
<path style="fill:#9fcdb7; stroke:none;" d="M248 370L248 374C248.71 372.24 248.71 371.759 248 370z"/>
<path style="fill:#d6e8df; stroke:none;" d="M366.333 370.667C366.278 370.722 366.222 371.778 366.667 371.333C366.722 371.278 366.778 370.222 366.333 370.667z"/>
<path style="fill:#abd3c0; stroke:none;" d="M404.667 370.333C404.222 370.778 405.278 370.722 405.333 370.667C405.778 370.222 404.722 370.278 404.667 370.333z"/>
<path style="fill:#dbebe3; stroke:none;" d="M538 370C538.684 371.58 538.805 371.777 540 373C539.316 371.42 539.195 371.223 538 370z"/>
<path style="fill:#f7c0bf; stroke:none;" d="M591.333 370.667C591.278 370.722 591.222 371.778 591.667 371.333C591.722 371.278 591.778 370.222 591.333 370.667z"/>
<path style="fill:#a4d0bb; stroke:none;" d="M357.333 371.667C357.278 371.722 357.222 372.778 357.667 372.333C357.722 372.278 357.778 371.222 357.333 371.667z"/>
<path style="fill:#d1e6dc; stroke:none;" d="M364.667 372.333C364.222 372.778 365.278 372.722 365.333 372.667C365.778 372.222 364.722 372.278 364.667 372.333z"/>
<path style="fill:#a3cfba; stroke:none;" d="M358.333 373.667C358.278 373.722 358.222 374.778 358.667 374.333C358.722 374.278 358.778 373.222 358.333 373.667z"/>
<path style="fill:#d2e7dd; stroke:none;" d="M440 373L440 377C440.71 375.24 440.71 374.76 440 373z"/>
<path style="fill:#c0ded0; stroke:none;" d="M296.333 374.667C296.278 374.722 296.222 375.778 296.667 375.333C296.722 375.278 296.778 374.222 296.333 374.667z"/>
<path style="fill:#f7bfbd; stroke:none;" d="M590.333 374.667C590.278 374.722 590.222 375.778 590.667 375.333C590.722 375.278 590.778 374.222 590.333 374.667z"/>
<path style="fill:#c8e1d5; stroke:none;" d="M220 375L220 378C220.696 376.446 220.696 376.554 220 375z"/>
<path style="fill:#a2ceb9; stroke:none;" d="M359.333 375.667C359.278 375.722 359.222 376.778 359.667 376.333C359.722 376.278 359.778 375.222 359.333 375.667z"/>
<path style="fill:#cce4d8; stroke:none;" d="M518.333 375.667C518.278 375.722 518.222 376.778 518.667 376.333C518.722 376.278 518.778 375.222 518.333 375.667z"/>
<path style="fill:#aed4c2; stroke:none;" d="M441 376C444.697 377.552 449.017 377 453 377C449.302 375.448 444.983 376 441 376z"/>
<path style="fill:#f9dcdb; stroke:none;" d="M590 376C594.471 377.876 600.183 377 605 377C600.529 375.124 594.817 376 590 376z"/>
<path style="fill:#a1ceb9; stroke:none;" d="M360.333 377.667C360.278 377.722 360.222 378.778 360.667 378.333C360.722 378.278 360.778 377.222 360.333 377.667z"/>
<path style="fill:#c5e0d4; stroke:none;" d="M210.333 378.667C210.278 378.722 210.222 379.778 210.667 379.333C210.722 379.278 210.778 378.222 210.333 378.667z"/>
<path style="fill:#afd5c3; stroke:none;" d="M221.333 378.667C221.278 378.722 221.222 379.778 221.667 379.333C221.722 379.278 221.778 378.222 221.333 378.667z"/>
<path style="fill:#dcebe4; stroke:none;" d="M257.333 378.667C257.278 378.722 257.222 379.778 257.667 379.333C257.722 379.278 257.778 378.222 257.333 378.667z"/>
<path style="fill:#b2d7c5; stroke:none;" d="M256 379L256 382C256.696 380.446 256.696 380.554 256 379z"/>
<path style="fill:#e0ede7; stroke:none;" d="M351 379L351 395C352.812 390.681 352.812 383.319 351 379z"/>
<path style="fill:#a9d2be; stroke:none;" d="M361 379L361 394L352 394C355.163 395.327 358.586 395 362 395C362 389.91 362.982 383.724 361 379z"/>
<path style="fill:#99cab3; stroke:none;" d="M392 379C395.959 380.661 400.737 380 405 380C401.041 378.339 396.263 379 392 379z"/>
<path style="fill:#ddece5; stroke:none;" d="M284 380C284.684 381.58 284.805 381.777 286 383C285.316 381.42 285.195 381.223 284 380z"/>
<path style="fill:#eaf3ef; stroke:none;" d="M362 380L362 395C363.74 390.852 363.74 384.148 362 380z"/>
<path style="fill:#cae2d7; stroke:none;" d="M392 380L392 395C393.74 390.852 393.74 384.148 392 380z"/>
<path style="fill:#c1ded1; stroke:none;" d="M244 381L245 382L244 381z"/>
<path style="fill:#c5e0d3; stroke:none;" d="M243 382L244 383L243 382z"/>
<path style="fill:#d0e5db; stroke:none;" d="M255.333 382.667C255.278 382.722 255.222 383.778 255.667 383.333C255.722 383.278 255.778 382.222 255.333 382.667z"/>
<path style="fill:#d8eae1; stroke:none;" d="M472.333 382.667C472.278 382.722 472.222 383.778 472.667 383.333C472.722 383.278 472.778 382.222 472.333 382.667z"/>
<path style="fill:#b8d9c9; stroke:none;" d="M562 382L563 383L562 382z"/>
<path style="fill:#daebe3; stroke:none;" d="M286 383C286.684 384.58 286.805 384.777 288 386C287.316 384.42 287.195 384.223 286 383z"/>
<path style="fill:#c3dfd2; stroke:none;" d="M557 383L558 384L557 383z"/>
<path style="fill:#b8d9c9; stroke:none;" d="M487 384L488 385L487 384z"/>
<path style="fill:#e6f1ec; stroke:none;" d="M324 385C326.89 386.213 329.874 385.998 333 386C330.11 384.787 327.126 385.002 324 385z"/>
<path style="fill:#cee5da; stroke:none;" d="M489.667 385.333C489.222 385.778 490.278 385.722 490.333 385.667C490.778 385.222 489.722 385.278 489.667 385.333z"/>
<path style="fill:#acd3c0; stroke:none;" d="M498.667 385.333C498.222 385.778 499.278 385.722 499.333 385.667C499.778 385.222 498.722 385.278 498.667 385.333z"/>
<path style="fill:#c1ded1; stroke:none;" d="M559 386L560 387L559 386z"/>
<path style="fill:#bddbcd; stroke:none;" d="M584 386C590.445 388.704 600.032 387 607 387L607 395C608.213 392.11 607.998 389.126 608 386L584 386z"/>
<path style="fill:#9fcdb7; stroke:none;" d="M563 392C560.196 394.125 557.466 393.989 554 394C557.432 395.44 561.3 395 565 395C564.309 393.612 564.015 393.139 563 392M303 393C299.959 393.9 297.169 393.992 294 394C295.804 395.039 304.366 396.309 303 393z"/>
<path style="fill:#d8eae1; stroke:none;" d="M240.667 394.333C240.222 394.778 241.278 394.722 241.333 394.667C241.778 394.222 240.722 394.278 240.667 394.333z"/>
<path style="fill:#c1ded0; stroke:none;" d="M486.667 394.333C486.222 394.778 487.278 394.722 487.333 394.667C487.778 394.222 486.722 394.278 486.667 394.333z"/>
<path style="fill:#cfe5db; stroke:none;" d="M230 395C232.332 395.985 234.457 395.981 237 396C234.668 395.015 232.543 395.019 230 395M490 395C492.613 396.098 495.164 395.993 498 396C495.387 394.902 492.836 395.007 490 395z"/>
<path style="fill:#e3e3e2; stroke:none;" d="M817.667 612.333C817.222 612.778 818.278 612.722 818.333 612.667C818.778 612.222 817.722 612.278 817.667 612.333z"/>
</svg>
